<?xml version="1.0" encoding="utf-8"?>
<!-- Generator: Adobe Illustrator 21.0.0, SVG Export Plug-In . SVG Version: 6.00 Build 0)  -->
<svg version="1.1" id="Layer_1" xmlns="http://www.w3.org/2000/svg" xmlns:xlink="http://www.w3.org/1999/xlink" x="0px" y="0px"
	 viewBox="0 0 512 512" style="enable-background:new 0 0 512 512;" xml:space="preserve">
<style type="text/css">
	.st0{fill:#F39323;}
	.st1{fill:#6B6B82;}
</style>
<g>
	<path class="st0" d="M297.1,304.4c2.6,0,14.8-4.2,38.6-7.3c4.7-0.6,8-4.9,7.4-9.5c-0.6-4.7-4.8-8-9.5-7.4
		c-13.2,1.7-26.1,4.1-38.6,7.4c-4.6,1.2-7.3,5.8-6.1,10.4C289.9,301.9,293.3,304.4,297.1,304.4L297.1,304.4z"/>
	<path class="st0" d="M288.9,376.7c1.2,4.6,5.9,7.3,10.4,6.1c11.8-3.1,24-5.4,36.4-7c4.7-0.6,8-4.9,7.4-9.5c-0.6-4.7-4.8-8-9.5-7.4
		c-13.2,1.7-26.1,4.1-38.6,7.4C290.4,367.5,287.7,372.1,288.9,376.7L288.9,376.7z"/>
	<path class="st0" d="M176.3,297.2c24.8,3.1,35.4,7.3,38.6,7.3c3.8,0,7.3-2.5,8.3-6.4c1.2-4.6-1.5-9.2-6.1-10.4
		c-12.5-3.2-25.4-5.7-38.6-7.4c-4.7-0.6-8.9,2.7-9.5,7.4C168.3,292.3,171.6,296.6,176.3,297.2L176.3,297.2z"/>
	<path class="st0" d="M176.3,375.8c24.8,3.1,35.4,7.3,38.6,7.3c3.8,0,7.3-2.5,8.3-6.4c1.2-4.6-1.5-9.2-6.1-10.4
		c-12.5-3.2-25.4-5.7-38.6-7.4c-4.7-0.6-8.9,2.7-9.5,7.4C168.3,371,171.6,375.3,176.3,375.8L176.3,375.8z"/>
	<path class="st1" d="M432.6,168.8C450.7,84.4,386,5.6,300.8,5.6c-61.5,0-115,41.8-130.4,100.6c-47.4-6.2-90.1,29.5-92.4,77.1
		C34.6,183.1,0,218.4,0,260.9c0,42.2,33.8,76.5,75.7,77.5v142.4c0,14.1,11.5,25.6,25.6,25.6h309.3c14.1,0,25.6-11.5,25.6-25.6V259.5
		c0-7.6-3.3-14.7-9.1-19.6c-3.6-3-9-2.6-12,1c-3,3.6-2.6,9,1,12c1.9,1.6,3,4,3,6.5v221.3c0,4.7-3.8,8.5-8.5,8.5H101.3
		c-4.7,0-8.5-3.8-8.5-8.5V259.5c0-4.7,3.8-8.5,8.5-8.5h26.2c4.7,0,8.5-3.8,8.5-8.5v-15.6c0-6.8,5.6-12.4,12.5-12.4
		c35.4-0.3,70.3,8.2,98.9,23.9v177.2c0,4.7,3.8,8.5,8.5,8.5c4.7,0,8.5-3.8,8.5-8.5V238.2c29.5-16.1,64.7-24.1,98.9-23.9
		c6.9,0,12.5,5.6,12.5,12.4v198c0,6.9-5.5,12.4-12.3,12.4c-34.4,0-66.6,7-93.8,19.2c-8.8,3.9-18.9,3.9-27.7,0
		c-28.2-12.6-61.4-19.4-93.7-19.2c-6.5,0.1-12.4-5.3-12.4-12.4V292.3c0-4.7-3.8-8.5-8.5-8.5c-4.7,0-8.5,3.8-8.5,8.5v132.4
		c0,15.8,12.6,29.5,29.6,29.5c29.9-0.2,60.6,6.1,86.6,17.7c13.2,5.9,28.4,5.9,41.7,0c26-11.6,56.7-18,86.6-17.7
		c16.4,0.1,29.6-13.2,29.6-29.5v-198c0-16.2-13.2-29.4-29.4-29.5c-38.4-0.3-76.4,9-107.6,26.1c-31.2-17.1-69.1-26.4-107.6-26.1
		c-16.2,0.1-29.4,13.4-29.4,29.5v7.1h-17.7c-14.1,0-25.6,11.5-25.6,25.6v61.9c-32.5-1-58.7-27.7-58.7-60.4c0-36.1,31.7-64.7,68.4-60
		c5.3,0.7,10-3.7,9.6-9c-3-44,37.5-77.6,79.8-67.6c4.7,1.1,9.4-1.9,10.4-6.7c10.8-55,59.4-95,115.5-95
		c78.9,0,135.7,76.6,112.6,152.2c-1.7,5.7,2.8,11.4,8.8,11c39.6-2.8,72.7,28.6,72.7,67.6c0,23.8-12.1,45.4-32.5,57.9
		c-4,2.5-5.3,7.7-2.8,11.7s7.7,5.3,11.7,2.8c25.4-15.6,40.6-42.7,40.6-72.4C512,208.6,476.9,171.7,432.6,168.8L432.6,168.8z"/>
	<path class="st0" d="M267.8,64.9C248.5,75,235,93,230.8,114.4c-0.9,4.6,2.1,9.1,6.7,10c4.6,0.9,9.1-2.1,10-6.7
		c3.1-16,13.7-30.1,28.2-37.6c4.2-2.2,5.8-7.3,3.6-11.5C277.2,64.3,272,62.7,267.8,64.9z"/>
</g>
</svg>
