<?xml version="1.0" encoding="utf-8"?>
<!-- Generator: Adobe Illustrator 21.0.0, SVG Export Plug-In . SVG Version: 6.00 Build 0)  -->
<svg version="1.1" id="Icons" xmlns="http://www.w3.org/2000/svg" xmlns:xlink="http://www.w3.org/1999/xlink" x="0px" y="0px"
	 viewBox="0 0 512 512" style="enable-background:new 0 0 512 512;" xml:space="preserve">
<style type="text/css">
	.st0{fill:#FFFFFF;}
</style>
<path class="st0" d="M441.5,498.2h-371c-3.8,0-6.9-3.1-6.9-6.9v-66.5c0.2-55,44.7-99.5,99.7-99.6h185.4c55,0.1,99.5,44.6,99.7,99.6
	v66.5C448.4,495.1,445.3,498.2,441.5,498.2L441.5,498.2z M77.4,484.3h357.2v-59.6c-0.2-47.3-38.5-85.6-85.9-85.7H163.3
	c-47.3,0.1-85.7,38.4-85.9,85.7V484.3z"/>
<path class="st0" d="M256,300c-56-0.1-101.4-45.5-101.5-101.5v-64.3c0-2.1,1-4,2.6-5.3c1.6-1.3,3.7-1.9,5.7-1.5
	c32.6,6.5,53-26.7,53.2-27.1c1-1.8,2.7-3.1,4.7-3.5c2-0.4,4,0.1,5.5,1.4c34.8,26.9,79.5,37.5,122.6,29c3.7-1,7.5,1.3,8.4,5
	c0.2,0.6,0.2,1.3,0.2,2v64.3C357.5,254.5,312.1,299.9,256,300z M168.3,142.1v56.4c0,48.4,39.3,87.6,87.7,87.6
	c48.4,0,87.6-39.2,87.6-87.6v-55.9c-42.3,6.4-85.4-3.9-120.2-28.8C215.3,124.5,196.3,143.7,168.3,142.1L168.3,142.1z"/>
<path class="st0" d="M365.2,201.7h-14.6c-3.8,0-6.9-3.1-6.9-6.9v-41.5c0-3.8,3.1-6.9,6.9-6.9h14.7c11,0,19.9,8.9,20,19.9
	c0,1.7-0.2,3.4-0.7,5.1l-4.9,19.3C377.9,197.1,371.9,201.7,365.2,201.7z M357.5,187.8h7.7c0.5,0,0.9-0.4,1-0.8l5-19.3
	c0.5-1.8,0.1-3.8-1.1-5.3c-1.1-1.5-2.9-2.4-4.8-2.4h-7.7V187.8z"/>
<path class="st0" d="M161.4,201.7h-14.6c-6.8,0-12.7-4.6-14.5-11.2l-4.9-19.3c-2.8-10.6,3.6-21.5,14.2-24.3c1.7-0.4,3.4-0.7,5.1-0.7
	h14.7c3.8,0,6.9,3.1,6.9,6.9v41.5c0.1,3.8-3,7-6.8,7.1C161.5,201.7,161.5,201.7,161.4,201.7L161.4,201.7z M146.8,160.2
	c-1.9,0-3.7,0.9-4.8,2.4c-1.2,1.5-1.6,3.4-1.1,5.3l5,19c0.1,0.5,0.5,0.8,1,0.8h7.7V160L146.8,160.2z"/>
<path class="st0" d="M373.1,162.7c-0.5,0.1-1,0.1-1.5,0c-3.7-0.8-6.1-4.5-5.3-8.2c12.5-56.2-23-111.8-79.2-124.3
	c-7.6-1.7-15.3-2.5-23-2.5h-16.2c-57.7,0-104.5,46.8-104.5,104.6c0,7.4,0.8,14.8,2.3,22c0.6,3.8-1.9,7.3-5.7,7.9
	c-3.5,0.6-6.8-1.6-7.8-5c-13.8-63.9,26.7-126.8,90.6-140.7c8.2-1.8,16.7-2.7,25.1-2.7h16.2c65.3,0,118.3,52.8,118.5,118.1
	c0,8.5-1,17-2.8,25.3C379.1,160.4,376.3,162.6,373.1,162.7L373.1,162.7z"/>
<path class="st0" d="M352.9,498.2H159.1c-3.8,0-6.9-3.1-6.9-6.9v-53.1c0-3.8,3.1-6.9,6.9-6.9c3.8,0,6.9,3.1,6.9,6.9v46.1h179.9
	v-46.1c0-3.8,3.1-6.9,6.9-6.9c3.8,0,6.9,3.1,6.9,6.9v53.1C359.8,495.1,356.7,498.2,352.9,498.2z"/>
</svg>
