<?xml version="1.0" encoding="utf-8"?>
<!-- Generator: Adobe Illustrator 21.0.0, SVG Export Plug-In . SVG Version: 6.00 Build 0)  -->
<svg version="1.1" id="Layer_1" xmlns="http://www.w3.org/2000/svg" xmlns:xlink="http://www.w3.org/1999/xlink" x="0px" y="0px"
	 viewBox="0 0 480 480" style="enable-background:new 0 0 480 480;" xml:space="preserve">
<style type="text/css">
	.st0{fill:#F39323;}
	.st1{fill:#6B6B82;}
</style>
<path class="st0" d="M344,200c-75.1,0-136,60.9-136,136s60.9,136,136,136s136-60.9,136-136C479.9,260.9,419.1,200.1,344,200z
	 M312,451.5V392h-16v53.9c-5.5-2.5-10.9-5.3-16-8.6v-45.2c0-10.7,7.1-20.1,17.4-23.1l17.4-5l24.4,18.3c2.8,2.1,6.8,2.1,9.6,0
	l24.4-18.3l17.4,5c10.3,3,17.4,12.4,17.4,23.1v45.2c-5.1,3.3-10.5,6.1-16,8.6V392h-16v59.5C355.1,457.5,332.9,457.5,312,451.5z
	 M370.7,275.5l-3.6-7.1c-1-2.1-2.9-3.6-5.1-4.2c-2.2-0.6-4.6-0.2-6.5,1.1l-11.9,7.9c-6.6,4.4-14.3,6.7-22.2,6.7H312
	c-0.1-17.7,14.2-32.1,31.9-32.1c17.7-0.1,32.1,14.2,32.1,31.9C373.7,279.2,371.8,277.7,370.7,275.5L370.7,275.5z M321.5,296
	c11.1,0,21.9-3.3,31.1-9.4l4.4-2.9c2.5,4.4,6.4,8,11.1,10V304c0,13.3-10.7,24-24,24s-24-10.7-24-24v-8H321.5z M344,344
	c2.7,0,5.4-0.3,8-0.8v8.8c0,2.3,1,4.4,2.8,5.9L344,366l-10.8-8.1c1.7-1.5,2.7-3.6,2.8-5.9v-8.8C338.6,343.7,341.3,344,344,344z
	 M424,425.2v-33c0-17.9-11.9-33.5-29-38.5l-27-7.7v-10.2c10-7.5,16-19.3,16-31.8v-8c4.4,0,8-3.6,8-8v-8c0-26.5-21.5-48-48-48
	s-48,21.5-48,48v8c0,4.4,3.6,8,8,8v8c0,12.5,6,24.3,16,31.8V346l-27,7.7c-17.2,5-29,20.6-29,38.5v33
	c-37.1-33.2-49.9-85.8-32.1-132.3c17.8-46.5,62.3-77.2,112.1-77.2s94.3,30.7,112.1,77.2C473.9,339.4,461.1,392,424,425.2z"/>
<path class="st1" d="M16,352V120h368v72h16V80c0-22.1-17.9-40-40-40h-56v-8c0-13.3-10.7-24-24-24s-24,10.7-24,24v8H144v-8
	c0-13.3-10.7-24-24-24S96,18.7,96,32v8H40C17.9,40,0,57.9,0,80v272c0,22.1,17.9,40,40,40h160v-16H40C26.7,376,16,365.3,16,352z
	 M272,32c0-4.4,3.6-8,8-8s8,3.6,8,8v32c0,4.4-3.6,8-8,8s-8-3.6-8-8V32z M112,32c0-4.4,3.6-8,8-8s8,3.6,8,8v32c0,4.4-3.6,8-8,8
	s-8-3.6-8-8V32z M40,56h56v8c0,13.3,10.7,24,24,24s24-10.7,24-24v-8h112v8c0,13.3,10.7,24,24,24s24-10.7,24-24v-8h56
	c13.3,0,24,10.7,24,24v24H16V80C16,66.7,26.7,56,40,56z"/>
<path class="st1" d="M112,184c0-8.8-7.2-16-16-16H64c-8.8,0-16,7.2-16,16v32c0,8.8,7.2,16,16,16h32c8.8,0,16-7.2,16-16V184z M64,216
	v-32h32v32H64z"/>
<path class="st1" d="M192,184c0-8.8-7.2-16-16-16h-32c-8.8,0-16,7.2-16,16v32c0,8.8,7.2,16,16,16h32c8.8,0,16-7.2,16-16V184z
	 M144,216v-32h32v32H144z"/>
<path class="st1" d="M272,200v-16c0-8.8-7.2-16-16-16h-32c-8.8,0-16,7.2-16,16v32c0,8.8,7.2,16,16,16h16v-16h-16v-32h32v16H272z"/>
<path class="st1" d="M304,168c-8.8,0-16,7.2-16,16v8h16v-8h48c0-8.8-7.2-16-16-16H304z"/>
<path class="st1" d="M96,264H64c-8.8,0-16,7.2-16,16v32c0,8.8,7.2,16,16,16h32c8.8,0,16-7.2,16-16v-32C112,271.2,104.8,264,96,264z
	 M64,312v-32h32v32H64z"/>
<path class="st1" d="M176,264h-32c-8.8,0-16,7.2-16,16v32c0,8.8,7.2,16,16,16h32c8.8,0,16-7.2,16-16v-32
	C192,271.2,184.8,264,176,264z M144,312v-32h32v32H144z"/>
</svg>
