<svg xmlns="http://www.w3.org/2000/svg" width="201" height="261" viewBox="0 0 201 261">
  <metadata><?xpacket begin="﻿" id="W5M0MpCehiHzreSzNTczkc9d"?>
<x:xmpmeta xmlns:x="adobe:ns:meta/" x:xmptk="Adobe XMP Core 5.6-c138 79.159824, 2016/09/14-01:09:01        ">
   <rdf:RDF xmlns:rdf="http://www.w3.org/1999/02/22-rdf-syntax-ns#">
      <rdf:Description rdf:about=""/>
   </rdf:RDF>
</x:xmpmeta>
                                                                                                    
                                                                                                    
                                                                                                    
                                                                                                    
                                                                                                    
                                                                                                    
                                                                                                    
                                                                                                    
                                                                                                    
                                                                                                    
                                                                                                    
                                                                                                    
                                                                                                    
                                                                                                    
                                                                                                    
                                                                                                    
                                                                                                    
                                                                                                    
                                                                                                    
                                                                                                    
                           
<?xpacket end="w"?></metadata>
<defs>
    <style>
      .cls-1 {
        fill: #f7b03e;
      }

      .cls-1, .cls-2, .cls-3 {
        fill-rule: evenodd;
      }

      .cls-2 {
        fill: #f39323;
      }

      .cls-3 {
        fill: #92b116;
      }
    </style>
  </defs>
  <path id="Shape_1_copy_4" data-name="Shape 1 copy 4" class="cls-1" d="M87.288,162.627a4.466,4.466,0,0,1-.63,2.744q-9.972,24.288-19.976,48.562c-1.044,2.537-1.037,2.529-3.364,1.245a78.148,78.148,0,0,1-28.566-26.77c-0.559-.875-1.056-1.79-1.567-2.695a7.119,7.119,0,0,1-.325-0.878ZM62.6,79.667l22.3,54.679a68.724,68.724,0,0,1-7.908-3.064q-21.869-8.946-43.7-17.976a8.048,8.048,0,0,0-1.1-.468c-0.986-.241-1.091-0.795-0.647-1.594,0.621-1.119,1.212-2.257,1.867-3.356A77.682,77.682,0,0,1,60.067,80.8c0.546-.332,1.114-0.631,1.685-0.918A4.85,4.85,0,0,1,62.6,79.667Zm53.718,53.91c1.035-2.486,2.061-4.975,3.105-7.456q9.247-21.982,18.5-43.963c0.093-.221.18-0.444,0.28-0.663,0.764-1.675.776-1.686,2.417-.686a77.477,77.477,0,0,1,20.827,18.563,71.08,71.08,0,0,1,7.4,11.462c0.178,0.349.293,0.73,0.5,1.264l-52.622,21.922Zm-3.035,29.549a13.956,13.956,0,0,1,4.161,1.423q23.878,10,47.738,20.046c0.221,0.093.443,0.183,0.66,0.287,1.647,0.79,1.7.883,0.719,2.474A78.427,78.427,0,0,1,136.966,215.4c-1.464.8-1.583,0.784-2.259-.814q-4.39-10.378-8.718-20.782-5.858-14.052-11.686-28.114C114,164.957,113.713,164.213,113.281,163.126Z"/>
  <path id="Shape_1_copy_3" data-name="Shape 1 copy 3" class="cls-2" d="M100.107,168.853a4.139,4.139,0,0,1,1.2,2.3c6.183,16.208,11.578,32.692,17.2,49.1,1.4,4.082,2.812,8.159,4.189,12.248a21.449,21.449,0,0,1,.99,11.575A18.01,18.01,0,0,1,114.3,256.5c-7.782,4.18-15.814,4.229-23.739.491a17.514,17.514,0,0,1-9.615-19.134c1.819-10.164,4.686-20.07,7.5-29.981,3.492-12.3,7.2-24.532,10.817-36.794A6.724,6.724,0,0,1,100.107,168.853ZM75.854,73.569a61.669,61.669,0,0,1,11.868-3.038,76.83,76.83,0,0,1,35.1,2.32c1.619,0.5,1.643.525,0.991,2.117q-5.918,14.429-11.857,28.849-5.3,12.87-10.6,25.738a3.34,3.34,0,0,1-1.309,1.992ZM80.033,149.3c-2.265.965-4.523,1.948-6.8,2.894Q51.21,161.371,29.178,170.53a10.211,10.211,0,0,0-1.1.477c-0.97.55-1.468,0.186-1.732-.8-0.576-2.163-1.288-4.3-1.749-6.481a79.058,79.058,0,0,1,.494-35.439c0.038-.155.1-0.3,0.148-0.457,0.518-1.822.527-1.846,2.193-1.146Q48.218,135.418,69,144.168l11.035,4.646Q80.032,149.059,80.033,149.3Zm41.035-.437c4.74-1.942,9.393-3.855,14.051-5.756q18.543-7.569,37.1-15.116c2.659-1.078,2.867-1.959,3.705,1.8a78.316,78.316,0,0,1-1.126,38.918c-0.044.153-.085,0.308-0.136,0.46-0.666,2-.672,2.015-2.649,1.2q-18.858-7.75-37.711-15.51-6.1-2.511-12.188-5.046A1.418,1.418,0,0,1,121.068,148.866Zm-3.487,95.254a8.093,8.093,0,0,1-2.272,5.647,13.95,13.95,0,0,1-8.827,4.41c-6.943.976-13.21-.528-18.227-5.719a9.466,9.466,0,0,1-2.641-9.013c2.186,4.911,6.2,6.76,10.5,8.15a26.136,26.136,0,0,0,15.8.5A11.617,11.617,0,0,0,117.581,244.12Z"/>
  <path id="green" class="cls-3" d="M169.514,1.306C167.465,18.492,156.6,34.4,136.2,39.744a88.59,88.59,0,0,1-26.9,2.316c-8.226-.395-16.441-1.014-24.657-1.593-3.747-.264-7.5-0.148-11.479-0.266a4.931,4.931,0,0,1,2.417-1.6c10.581-5.39,21.736-9.312,33.05-12.814,9.472-2.932,19.06-5.433,28.728-7.627a1.815,1.815,0,0,0,1.294-.7c-25.058-1.961-46.33,6.483-65.3,21.681A1.345,1.345,0,0,1,73,37.477c1.712-8.1,4.78-15.554,10.253-21.911A34.418,34.418,0,0,1,104.833,3.68c7.237-1.1,14.524-.651,21.794-0.227,7.119,0.416,14.1,1.913,21.158,2.781a32.3,32.3,0,0,0,16.626-2.562,15.5,15.5,0,0,0,4.623-2.366h0.48ZM135.459,241.687a37.387,37.387,0,0,0-2.02-12.941,1.362,1.362,0,0,1,.953-1.99,77.15,77.15,0,0,0,11.033-5.806c19.151-12.2,31.945-29.2,37.417-51.235,6.428-25.886,1.76-49.974-14.041-71.494-13.147-17.907-30.928-28.958-52.83-33.046C97.088,61.65,78.884,64.114,61.89,73.03c-24.789,13.005-40.36,33.4-45.041,61.049-5.316,31.405,4.636,57.927,28.276,79.223A79.108,79.108,0,0,0,68.349,227.54a16.05,16.05,0,0,0,1.567.6c1.1,0.32,1.254,1,.987,2.022-0.708,2.712-1.109,5.484-1.559,8.248-0.243,1.488.134,3.018-.312,4.494-33.3-9.786-70.407-46.037-67.941-98.826a99.5,99.5,0,0,1,197.7-10.659C206.912,187.327,172.093,228.985,135.459,241.687Z"/>
</svg>
