<svg xmlns="http://www.w3.org/2000/svg" width="690" height="330" viewBox="0 0 690 330">
  <metadata><?xpacket begin="﻿" id="W5M0MpCehiHzreSzNTczkc9d"?>
<x:xmpmeta xmlns:x="adobe:ns:meta/" x:xmptk="Adobe XMP Core 5.6-c138 79.159824, 2016/09/14-01:09:01        ">
   <rdf:RDF xmlns:rdf="http://www.w3.org/1999/02/22-rdf-syntax-ns#">
      <rdf:Description rdf:about=""/>
   </rdf:RDF>
</x:xmpmeta>
                                                                                                    
                                                                                                    
                                                                                                    
                                                                                                    
                                                                                                    
                                                                                                    
                                                                                                    
                                                                                                    
                                                                                                    
                                                                                                    
                                                                                                    
                                                                                                    
                                                                                                    
                                                                                                    
                                                                                                    
                                                                                                    
                                                                                                    
                                                                                                    
                                                                                                    
                                                                                                    
                           
<?xpacket end="w"?></metadata>
<defs>
    <style>
      .cls-1 {
        fill: #f7b03e;
      }

      .cls-1, .cls-2, .cls-3 {
        fill-rule: evenodd;
      }

      .cls-2 {
        fill: #f39323;
      }

      .cls-3 {
        fill: #92b116;
      }
    </style>
  </defs>
  <path id="Shape_1_copy_4" data-name="Shape 1 copy 4" class="cls-1" d="M332.342,115.41a4.478,4.478,0,0,1-.63,2.745q-9.963,24.3-19.958,48.589c-1.043,2.538-1.036,2.531-3.361,1.246a78.135,78.135,0,0,1-28.54-26.784c-0.558-.876-1.055-1.792-1.565-2.7a6.868,6.868,0,0,1-.325-0.879ZM307.674,32.4c7.385,18.134,14.758,36.24,22.28,54.709a68.733,68.733,0,0,1-7.9-3.065Q300.2,75.1,278.387,66.062a8.061,8.061,0,0,0-1.1-.468c-0.986-.241-1.091-0.8-0.647-1.6,0.621-1.12,1.211-2.258,1.865-3.358a77.672,77.672,0,0,1,26.639-27.1c0.546-.332,1.113-0.631,1.684-0.919A4.807,4.807,0,0,1,307.674,32.4Zm53.669,53.939c1.034-2.487,2.06-4.977,3.1-7.46q9.24-21.995,18.486-43.987c0.093-.221.18-0.445,0.28-0.663,0.763-1.676.775-1.687,2.415-.686a77.444,77.444,0,0,1,20.808,18.574,71,71,0,0,1,7.389,11.468c0.178,0.349.293,0.73,0.5,1.264L361.752,86.788Zm-3.032,29.565a13.956,13.956,0,0,1,4.157,1.424q23.857,10,47.695,20.057c0.222,0.093.444,0.184,0.66,0.287,1.646,0.79,1.7.884,0.719,2.475a78.4,78.4,0,0,1-29.567,28.062c-1.463.8-1.582,0.784-2.257-.815q-4.386-10.383-8.71-20.793-5.853-14.059-11.675-28.13C359.027,117.741,358.743,117,358.311,115.909Z"/>
  <path id="Shape_1_copy_3" data-name="Shape 1 copy 3" class="cls-2" d="M345.149,121.64a4.139,4.139,0,0,1,1.2,2.3c6.178,16.217,11.569,32.71,17.184,49.125,1.4,4.084,2.81,8.163,4.186,12.254a21.5,21.5,0,0,1,.989,11.582,18.018,18.018,0,0,1-9.38,12.433c-7.774,4.182-15.8,4.231-23.718.491a17.532,17.532,0,0,1-9.606-19.145c1.817-10.17,4.681-20.081,7.493-30,3.489-12.3,7.193-24.546,10.807-36.814A6.707,6.707,0,0,1,345.149,121.64ZM320.918,26.3a61.534,61.534,0,0,1,11.857-3.04,76.652,76.652,0,0,1,35.065,2.321c1.618,0.5,1.642.526,0.99,2.118q-5.91,14.437-11.846,28.865Q351.694,69.446,346.4,82.32a3.346,3.346,0,0,1-1.308,1.993C337.031,64.977,329.019,45.748,320.918,26.3Zm4.175,75.775c-2.263.967-4.519,1.95-6.79,2.9q-22.008,9.177-44.02,18.343a9.758,9.758,0,0,0-1.1.477c-0.969.55-1.467,0.186-1.73-.8-0.575-2.164-1.287-4.3-1.747-6.485a79.2,79.2,0,0,1,.494-35.458c0.037-.155.1-0.3,0.148-0.457,0.517-1.823.526-1.847,2.191-1.147q20.765,8.74,41.524,17.5l11.026,4.649C325.091,101.753,325.092,101.915,325.093,102.078Zm41-.436c4.736-1.944,9.385-3.858,14.039-5.76q18.527-7.572,37.062-15.124c2.656-1.078,2.864-1.96,3.7,1.8a78.468,78.468,0,0,1-1.125,38.939c-0.043.154-.085,0.309-0.135,0.46-0.666,2-.672,2.017-2.647,1.2q-18.841-7.754-37.678-15.519-6.093-2.511-12.177-5.048A1.419,1.419,0,0,1,366.091,101.642Zm-3.484,95.306a8.1,8.1,0,0,1-2.269,5.65,13.935,13.935,0,0,1-8.82,4.412c-6.937.977-13.2-.529-18.211-5.722a9.48,9.48,0,0,1-2.638-9.018c2.184,4.913,6.194,6.764,10.486,8.154a26.067,26.067,0,0,0,15.787.5A11.611,11.611,0,0,0,362.607,196.948Z"/>
  <path id="green" class="cls-3" d="M414.494-46c-2.047,17.2-12.907,33.11-33.28,38.459a88.392,88.392,0,0,1-26.881,2.317c-8.219-.4-16.427-1.015-24.636-1.594-3.744-.264-7.493-0.148-11.468-0.266a4.928,4.928,0,0,1,2.415-1.6C331.216-14.079,342.36-18,353.665-21.507c9.463-2.933,19.042-5.436,28.7-7.631a1.811,1.811,0,0,0,1.292-.7c-25.035-1.962-46.288,6.487-65.246,21.692a1.348,1.348,0,0,1-.348-1.666c1.711-8.1,4.776-15.562,10.244-21.923A34.372,34.372,0,0,1,349.87-43.624c7.231-1.1,14.511-.652,21.775-0.227,7.113,0.416,14.085,1.914,21.14,2.783A32.231,32.231,0,0,0,409.4-43.632,15.473,15.473,0,0,0,414.014-46h0.48ZM380.47,194.514a37.5,37.5,0,0,0-2.019-12.949,1.363,1.363,0,0,1,.952-1.991,77.058,77.058,0,0,0,11.023-5.809c19.134-12.211,31.917-29.22,37.384-51.263,6.423-25.9,1.759-50-14.028-71.534C400.646,33.051,382.881,21.994,361,17.9c-18.867-3.526-37.054-1.061-54.033,7.86-24.767,13.012-40.324,33.415-45,61.083-5.312,31.422,4.631,57.958,28.25,79.266a79.011,79.011,0,0,0,23.2,14.245,15.72,15.72,0,0,0,1.565.6c1.094,0.32,1.252,1,.986,2.023-0.707,2.713-1.108,5.487-1.558,8.252-0.243,1.49.133,3.02-.313,4.5-33.27-9.791-70.343-46.062-67.88-98.88A99.4,99.4,0,0,1,443.742,86.187C451.858,140.124,417.071,181.805,380.47,194.514Z"/>
  <path id="line" class="cls-3" d="M3,309c5.326-.688,10.417-0.882,15.5-1.145,11.737-.608,23.481-1.1,35.22-1.678,11.579-.57,23.159-1.077,34.746-1.455,13.826-.452,27.65-0.966,41.475-1.456,18.221-.645,36.448-1.044,54.675-1.461,18.629-.426,37.26-0.651,55.89-0.974,20.632-.357,41.265-0.3,61.9-0.518,17.914-.191,35.828-0.171,53.743-0.073q30.95,0.17,61.9.446,16.192,0.141,32.386.438,25.905,0.451,51.81.989,19.067,0.4,38.132.946,23.38,0.659,46.757,1.428,25.652,0.88,51.3,1.926,20.853,0.846,41.7,1.9c2.625,0.131,5.244.5,7.878,0.689H3Z"/>
  <path class="cls-3" d="M595.278,285H572.235c-0.56,0-1.12-.006-1.68-0.012a1.043,1.043,0,0,1,.012-2.084q2.28-.01,4.561-0.018c2.53-.014,2.544-0.014,2.544-2.445q0.006-26.316,0-52.631c0-.4-0.026-0.806,0-1.207a1.081,1.081,0,0,0-1.275-1.3c-1.84,0-3.679-.055-5.519-0.081-0.683-.01-1.267-0.077-1.306-1-0.045-1.068.608-1.149,1.395-1.129,0.479,0.013.96,0,1.44,0l43.446,0c0.4,0,.8-0.008,1.2,0,1.787,0.043,1.813.044,1.86,1.9,0.131,5.229.233,10.458,0.361,15.687,0.016,0.671.094,1.311-.838,1.41a1.2,1.2,0,0,1-1.534-1.072c-0.355-1.73-.778-3.447-1.207-5.161a18.781,18.781,0,0,0-1.957-4.654c-1.874-3.315-5-4.595-8.5-5.2-5.392-.924-10.851-0.568-16.28-0.8-1.139-.049-1.53.414-1.525,1.558q0.051,11.831,0,23.66c-0.006,1.208.329,1.745,1.622,1.683,2.552-.122,5.114.116,7.652-0.425,3.414-.728,4.823-2.073,5.479-5.506a24.418,24.418,0,0,0,.506-5.514c-0.037-1,.081-1.693,1.394-1.653,1.255,0.039,1.164.8,1.164,1.617q0,9.294,0,18.589c0,2.575-.023,5.151-0.006,7.726,0,0.886-.055,1.55-1.235,1.558-1.122.008-1.334-.535-1.325-1.485a27.67,27.67,0,0,0-.537-6.718c-0.756-3.178-2.678-4.979-6.014-5.255-2.387-.2-4.8-0.108-7.193-0.2-1.156-.047-1.544.435-1.516,1.565,0.058,2.332.023,4.667,0.022,7,0,5.713-.015,11.427,0,17.141,0,2.3.03,2.357,2.2,2.321,4.875-.083,9.753.236,14.627-0.261,6.214-.633,10.607-3.656,13-9.531a36.535,36.535,0,0,0,2.23-7.866,1.4,1.4,0,0,1,.755-1.38A1.161,1.161,0,0,1,621.991,265c-0.019,2.494-.1,4.988-0.186,7.481-0.119,3.457-.262,6.914-0.4,10.37-0.085,2.131-.09,2.144-2.363,2.146Q607.16,285.005,595.278,285Zm-128.1-18.556a7.584,7.584,0,0,0,.212-2.75q0.02-17.873,0-35.745c0-2.561.5-2.635-2.555-2.711-1.759-.043-3.521-0.017-5.282-0.014-0.788,0-1.438-.095-1.391-1.156,0.041-.935.647-0.968,1.317-0.968q8.524,0,17.049,0c0.793,0,1.431.083,1.4,1.136-0.029.93-.621,0.98-1.3,0.99-1.76.025-3.521,0.082-5.281,0.084a1.067,1.067,0,0,0-1.274,1.285c0.042,0.722,0,1.448,0,2.173q0,27.049,0,54.1c0,0.644,0,1.288-.012,1.932a1.009,1.009,0,0,1-.813,1.042,1.083,1.083,0,0,1-1.275-.4q-0.492-.685-0.973-1.378-18.771-27.158-37.55-54.309a5.224,5.224,0,0,0-1.907-2.13v2.324q0,25.118,0,50.236c0,0.483.019,0.967,0,1.449a1.1,1.1,0,0,0,1.34,1.252q3.241-.025,6.483.013c0.763,0.008,1.694-.2,1.659,1.108-0.031,1.135-.837.986-1.528,0.987-5.683.011-11.366,0-17.049,0.01-0.792,0-1.444-.081-1.4-1.141,0.039-.928.643-0.972,1.323-0.971,1.52,0,3.041.01,4.562-.007,2.041-.022,2.041-0.031,2.063-2.177,0-.161,0-0.322,0-0.483q0-25.843,0-51.686c0-.483.007-0.966-0.007-1.449-0.051-1.806-.053-1.832-1.922-1.852-1.519-.015-3.04.032-4.56,0.074-0.8.022-1.442-.078-1.45-1.113-0.009-1.052.651-1.1,1.44-1.1,5.683,0.012,11.367.043,17.049-.026a2.513,2.513,0,0,1,2.259,1.446q7.383,10.716,14.784,21.418,6.642,9.617,13.292,19.227A2.62,2.62,0,0,0,467.176,266.444Zm32.915-17.13q0-10.864,0-21.728c0-2.224-.024-2.224-2.226-2.274-1.52-.035-3.039-0.086-4.559-0.1A0.977,0.977,0,0,1,492.216,224a0.892,0.892,0,0,1,1.122-.9c0.48,0,.96,0,1.44,0l21.123,0c0.4,0,.8-0.018,1.2,0,0.616,0.03,1.349-.12,1.407.858a1.082,1.082,0,0,1-1.321,1.262c-1.68-.016-3.36-0.01-5.04,0-2.135.012-2.175,0.017-2.174,2.061q0.009,20.883.041,41.766a22.77,22.77,0,0,0,.573,4.782c1.076,4.991,4.287,7.781,9.218,8.536a40.137,40.137,0,0,0,14.557-.265c5.512-1.177,8.273-4.1,9.326-9.663a32.271,32.271,0,0,0,.489-6q0.016-19.436.008-38.87c0-2.252-.016-2.284-2.2-2.323-1.918-.034-3.838.026-5.758,0.026a1.014,1.014,0,0,1-1.275-1.048c0-.619.061-1.133,0.859-1.114,0.4,0.01.8-.012,1.2-0.012q7.44,0,14.881,0h1.2a0.9,0.9,0,0,1,.975,1.073,0.919,0.919,0,0,1-1.025,1.039q-2.04.053-4.078,0.095c-2.08.042-2.106,0.04-2.108,2.15-0.01,10.22,0,20.44-.01,30.661,0,4.1.1,8.206-.21,12.306a22.823,22.823,0,0,1-.685,4.281,12.458,12.458,0,0,1-8.9,9.257,29.521,29.521,0,0,1-6.106,1.21c-6.635.538-13.275,0.695-19.822-.78-6.785-1.527-10.265-5.662-10.788-12.636-0.15-2-.225-4.016-0.237-6.025C500.07,260.258,500.091,254.786,500.091,249.314Z"/>
  <path class="cls-3" d="M100.028,250.2a41.466,41.466,0,0,1,8.119,2.341c4.736,1.952,7.708,5.4,8.484,10.546a24.948,24.948,0,0,1-.541,11A11.827,11.827,0,0,1,108.922,282a25.165,25.165,0,0,1-9.582,1.944C89.177,284,79.014,283.991,68.851,284c-0.24,0-.48-0.012-0.72,0a0.975,0.975,0,0,1-1.146-1.161,0.9,0.9,0,0,1,1.1-.938c1.6,0,3.2,0,4.8-.015,2.19-.021,2.2-0.027,2.2-2.273q0.005-25.5,0-51c0-.886.024-1.773,0-2.658-0.037-1.647-.046-1.68-1.76-1.761-1.438-.067-2.88-0.041-4.32-0.069a8.382,8.382,0,0,1-1.428-.1,0.889,0.889,0,0,1-.595-1.141,0.749,0.749,0,0,1,.676-0.836A8.467,8.467,0,0,1,68.624,222q14.764,0.007,29.529.026a22.7,22.7,0,0,1,5.446.8c4.2,1.049,6.754,3.8,7.986,7.884a17.68,17.68,0,0,1,.391,8.842,12.082,12.082,0,0,1-6.639,8.4C103.651,248.85,101.818,249.386,100.028,250.2Zm-15.043,16.42c0-4.27-.01-8.54,0-12.81,0.007-2.271.025-2.283,2.181-2.293,2.481-.011,4.962-0.022,7.442.008,6.534,0.077,10.517,3.458,11.607,9.9a29.177,29.177,0,0,1,.006,10.335,17.392,17.392,0,0,1-1.493,4.574,9.331,9.331,0,0,1-6.92,5.073c-3.878.782-7.814,0.431-11.728,0.466-1.233.012-1.1-.923-1.1-1.717q-0.013-5.921-.006-11.843,0-.846,0-1.692h0Zm5.249-17.874c-1.361,0-2.722-.014-4.083.006A0.975,0.975,0,0,1,85,247.6c0.011-.241-0.01-0.484-0.01-0.726,0-6.932-.008-13.865.017-20.8,0.006-1.77.055-1.843,1.911-1.87,2.479-.035,4.964-0.014,7.44.113a6.748,6.748,0,0,1,6.522,5.137,24.924,24.924,0,0,1,.479,13.363c-0.8,3.451-3.018,5.344-6.566,5.773-1.505.182-3.036,0.154-4.555,0.221C90.236,248.787,90.236,248.766,90.235,248.745Zm242.928,34.721H320.228c-0.559,0-1.119,0-1.677-.023a0.822,0.822,0,0,1-.838-0.938,0.892,0.892,0,0,1,.907-1.126c1.6-.024,3.194,0,4.79-0.039,1.7-.047,1.745-0.072,1.755-1.777,0.025-4.018.007-8.036,0.006-12.054q0-12.054-.006-24.108c0-1.981-.032-1.992-1.953-2.021-1.437-.021-2.875-0.025-4.312,0a0.954,0.954,0,0,1-1.185-1.089,1.015,1.015,0,0,1,1.189-1.142c0.079,0,.159-0.006.239,0,9.5,0.128,19.017-.473,28.49.3,10.06,0.823,16.654,7.5,18.017,17.529a29,29,0,0,1-.772,12.406c-2.55,8.48-9.306,13.691-18.3,14-4.466.156-8.942,0.027-13.413,0.027v0.055ZM162.378,259.651c0.713,0.08,1.435.118,2.139,0.249,4.86,0.9,7.22,3.415,7.831,8.381,0.334,2.711.581,5.431,0.892,8.145a18.883,18.883,0,0,0,.379,1.885,3.6,3.6,0,0,0,3.366,2.941c0.788,0.1,1.593.091,2.39,0.122a0.9,0.9,0,0,1,.9,1.129,0.8,0.8,0,0,1-.837.937c-3.192-.041-6.4.309-9.569-0.229a5.6,5.6,0,0,1-4.684-4.3,31.448,31.448,0,0,1-.889-7.4,20.573,20.573,0,0,0-.507-5.02c-0.963-3.316-2.914-5.031-6.345-5.239-2.15-.13-4.313-0.033-6.47-0.077a1.057,1.057,0,0,0-1.288,1.243q0.036,8.8,0,17.611c-0.005,1.1.53,1.356,1.487,1.33,1.438-.041,2.877-0.017,4.315,0,0.693,0.011,1.482-.138,1.525.992,0.041,1.1-.657,1.1-1.413,1.1q-10.068,0-20.137,0c-0.159,0-.319-0.009-0.479-0.011A0.88,0.88,0,0,1,134,282.4a0.89,0.89,0,0,1,1.006-1.028c1.6-.012,3.2-0.085,4.793,0,1.287,0.066,1.733-.491,1.644-1.7-0.035-.48,0-0.965,0-1.447V244.212c0-.241,0-0.482,0-0.724-0.032-2.087-.033-2.094-2.114-2.114-1.439-.014-2.877-0.012-4.315,0a0.863,0.863,0,0,1-1-1.018,0.936,0.936,0,0,1,.88-1.166c0.558-.03,1.118-0.031,1.677-0.031,7.112,0,14.223-.032,21.335.009a21.235,21.235,0,0,1,7.991,1.3,7.19,7.19,0,0,1,4.637,5.405,14.081,14.081,0,0,1-.194,7.147,8.231,8.231,0,0,1-4.6,5.269C164.661,258.788,163.528,259.147,162.378,259.651Zm101.773-15.644a3.964,3.964,0,0,0-.32,2.264q-0.023,16.275-.015,32.551c0,0.241,0,.482,0,0.723,0.059,1.739.06,1.761,1.716,1.8,1.6,0.035,3.194.026,4.791,0.024a0.964,0.964,0,0,1,1.188,1.095c-0.018.931-.592,1-1.275,1q-7.546,0-15.093,0c-0.663,0-1.278-.026-1.329-0.958-0.057-1.058.577-1.156,1.374-1.151,1.517,0.009,3.035-.041,4.551,0a1.158,1.158,0,0,0,1.411-1.411c-0.019-.24,0-0.482,0-0.723q0-17.843,0-35.686c0-2.12-.028-2.128-2.062-2.152-1.437-.018-2.875-0.019-4.312-0.012a0.866,0.866,0,0,1-.963-1.05,0.957,0.957,0,0,1,.939-1.132c0.239-.018.478-0.029,0.717-0.029,4.632-.009,9.265.031,13.9-0.052a2.963,2.963,0,0,1,2.657,1.658Q280.99,253.572,290,266.345a10.836,10.836,0,0,0,1.77,2.255c0.7-.216.422-0.793,0.423-1.205q0.029-11.935.013-23.87c0-2.114-.024-2.122-2.067-2.145-1.517-.017-3.035-0.013-4.552-0.012a0.874,0.874,0,0,1-1.086-.928c-0.011-.743.157-1.273,1.02-1.277,0.718,0,1.437-.007,2.156-0.008q5.99,0,11.979-.006c0.559,0,1.118,0,1.676.014a0.909,0.909,0,0,1,.932,1.111,0.884,0.884,0,0,1-.928,1.095c-1.757,0-3.514.033-5.27,0a1.056,1.056,0,0,0-1.3,1.252c0.034,0.641,0,1.286,0,1.929q0,18.084,0,36.168a13.13,13.13,0,0,1-.013,1.445c-0.064.591,0.3,1.444-.518,1.665-0.9.246-1.9,0.387-2.579-.635-0.665-1-1.385-1.966-2.074-2.951q-12.256-17.55-24.514-35.1C264.816,244.782,264.51,244.45,264.151,244.007Zm-62.18,37.353c2.306,0,4.137,0,5.968,0,0.7,0,1.242.111,1.252,1.027a0.971,0.971,0,0,1-1.21,1.076q-7.064,0-14.128,0a0.967,0.967,0,0,1-1.182-1.1c0.02-.912.584-1.012,1.284-1.007q1.675,0.011,3.352-.006c2.063-.019,2.072-0.019,2.746-1.889q2.041-5.66,4.066-11.327c3.323-9.29,6.629-18.586,9.985-27.864,0.345-.954.371-2.248,2.039-2.2,1.958,0.056,2.006-.067,2.725,1.912q6.947,19.112,13.875,38.23c1.381,3.789.619,3.045,4.494,3.144,0.638,0.016,1.277,0,1.915.008,0.673,0,1.261.055,1.293,0.987,0.037,1.083-.639,1.125-1.407,1.115-0.319,0-.638,0-0.958,0q-9.219,0-18.438,0c-0.479,0-.958-0.008-1.436-0.028a0.816,0.816,0,0,1-.823-0.943,0.87,0.87,0,0,1,.9-1.115c1.756-.013,3.512-0.05,5.268-0.02,1.107,0.019,1.439-.372,1.043-1.449q-1.953-5.308-3.837-10.641a1.361,1.361,0,0,0-1.413-1.035q-5.863-.039-11.728-0.08a1.217,1.217,0,0,0-1.289.857C204.924,273,203.514,276.988,201.971,281.36Zm131.422-20.135c0-5.945-.01-11.889.005-17.834,0-1.974.034-2,1.955-2.011,2.554-.019,5.108.012,7.662,0,5.385-.021,9.059,2.6,11.308,7.41a21.329,21.329,0,0,1,1.838,6.21c0.781,5.866.819,11.7-1.207,17.366-1.378,3.85-3.592,6.982-7.713,8.288a14.291,14.291,0,0,1-4,.678c-2.713.061-5.428,0.04-8.141,0-1.66-.023-1.7-0.065-1.7-1.8C333.383,273.435,333.394,267.33,333.393,261.225ZM149.7,250.2c0-2.408.055-4.816-.025-7.221-0.042-1.286.457-1.682,1.668-1.616,1.51,0.082,3.029,0,4.542.052a5.6,5.6,0,0,1,5.451,3.949,13.4,13.4,0,0,1-.228,9.87,5.512,5.512,0,0,1-4.7,3.6,30.976,30.976,0,0,1-5.49.164,1.108,1.108,0,0,1-1.229-1.338C149.72,255.169,149.7,252.682,149.7,250.2Zm69.571,15.719H207.438c1.955-5.519,3.847-10.856,5.769-16.281C214.33,250.894,218.6,262.433,219.269,265.914Z"/>
</svg>
