<svg xmlns="http://www.w3.org/2000/svg" width="60" height="60" viewBox="0 0 60 60">
  <metadata><?xpacket begin="﻿" id="W5M0MpCehiHzreSzNTczkc9d"?>
<x:xmpmeta xmlns:x="adobe:ns:meta/" x:xmptk="Adobe XMP Core 5.6-c138 79.159824, 2016/09/14-01:09:01        ">
   <rdf:RDF xmlns:rdf="http://www.w3.org/1999/02/22-rdf-syntax-ns#">
      <rdf:Description rdf:about=""/>
   </rdf:RDF>
</x:xmpmeta>
                                                                                                    
                                                                                                    
                                                                                                    
                                                                                                    
                                                                                                    
                                                                                                    
                                                                                                    
                                                                                                    
                                                                                                    
                                                                                                    
                                                                                                    
                                                                                                    
                                                                                                    
                                                                                                    
                                                                                                    
                                                                                                    
                                                                                                    
                                                                                                    
                                                                                                    
                                                                                                    
                           
<?xpacket end="w"?></metadata>
<defs>
    <style>
      .cls-1 {
        fill: #92b116;
        fill-rule: evenodd;
      }
    </style>
  </defs>
  <path class="cls-1" d="M47.02,20.849c-2.281-9.514-5.99-14.975-8.7-17.881a4.437,4.437,0,0,0-5.889-.542A4.214,4.214,0,0,0,30.851,6.8a4.152,4.152,0,0,0-5.429.685,3.835,3.835,0,0,0,.3,5.351l0.962,0.872c-0.339.032-1.892,0.3-3.242,0.627a0.839,0.839,0,1,0,.4,1.63c1.257-.309,2.378-0.49,2.857-0.567a2.038,2.038,0,0,1,1.106.123c3.428,1.419,7.344,5.57,8.852,8.515A11.587,11.587,0,0,1,38.2,28.5a0.842,0.842,0,0,0,1.683,0,13.227,13.227,0,0,0-1.631-5.059A35.088,35.088,0,0,0,32.813,7.166a2.529,2.529,0,0,1,.623-3.393,2.753,2.753,0,0,1,3.653.338c2.572,2.758,6.1,7.968,8.295,17.128A0.842,0.842,0,0,0,47.02,20.849ZM32.958,10.78a33.461,33.461,0,0,1,3.207,9.535,23.78,23.78,0,0,0-5.04-4.852l-4.268-3.869a2.151,2.151,0,0,1-.17-3,2.458,2.458,0,0,1,3.428-.243ZM47.913,25.489c-0.012-.1-0.046-0.35-0.107-0.735a0.842,0.842,0,0,0-1.663.261,26.675,26.675,0,0,1-.683,14.8c-2.029,5.753-1.8,5.273-2.727,7.106-1.016,2.025-.492,3.61-0.634,8.78a1.469,1.469,0,0,1-1.47,1.466h-9.2a0.839,0.839,0,1,0,0,1.678h9.2A3.152,3.152,0,0,0,43.782,55.7c0.118-5.541-.318-6.582.52-8.153,0.754-1.414.814-1.7,2.746-7.177A26.986,26.986,0,0,0,47.913,25.489ZM32.027,35.4l-0.233-6.559a3.838,3.838,0,0,0-.866-2.288L27.908,22.88a2.883,2.883,0,0,0-3.372-.807,17.207,17.207,0,0,1-5.474,1.684c-1.581,0-4.327-2.035-1.565-4.789a9.39,9.39,0,0,1,2.775-1.806,0.84,0.84,0,1,0-.695-1.529,11.041,11.041,0,0,0-3.27,2.148c-3.765,3.755-.446,7.654,2.756,7.654,1.642,0,4.252-.993,6.152-1.826a1.191,1.191,0,0,1,1.393.334l3.021,3.677a2.153,2.153,0,0,1,.486,1.284l0.233,6.558a0.937,0.937,0,0,1-.322.742c-2.5,2.18-2.356,2.052-2.406,2.1a1.869,1.869,0,0,1-2.42.244c-0.567-.478-1.545-0.763-1.771-1.939a50.537,50.537,0,0,0-1.76-6.739c-1.4-3.211-4.109-4.618-6.905-3.585a3.319,3.319,0,0,0-2.439,2.43,10.442,10.442,0,0,0,.428,3.8,55.726,55.726,0,0,1,1.126,8.2A6.823,6.823,0,0,0,15.6,44.951C17.437,47,18.776,48.92,22,53.211a3.426,3.426,0,0,1,.919,2.317,3.324,3.324,0,0,0,3.325,3.315H27.5a0.839,0.839,0,1,0,0-1.678H26.244A1.641,1.641,0,0,1,24.6,55.529a5.028,5.028,0,0,0-1.253-3.321c-3.082-4.1-4.57-6.224-6.493-8.374a5.143,5.143,0,0,1-1.3-3.193,57.669,57.669,0,0,0-1.163-8.483c-0.7-3.237-.727-3.674.952-4.294,2.884-1.066,4.385,1.781,4.772,2.67a51.062,51.062,0,0,1,1.655,6.4,4.694,4.694,0,0,0,2.466,3,3.548,3.548,0,0,0,4.566-.434l2.326-2.03A2.608,2.608,0,0,0,32.027,35.4ZM5.27,11.7a0.025,0.025,0,0,1,.007.022L4.79,14.642a1.71,1.71,0,0,0,1.685,1.987,1.713,1.713,0,0,0,.8-0.2L9.9,15.039a0.024,0.024,0,0,1,.023,0l2.63,1.363a1.708,1.708,0,0,0,2.472-1.809l-0.515-2.911a0.025,0.025,0,0,1,.007-0.022l2.113-2.073a1.7,1.7,0,0,0-.961-2.9l-2.935-.411a0.024,0.024,0,0,1-.019-0.013L11.386,3.616a1.7,1.7,0,0,0-1.529-.943H9.849a1.7,1.7,0,0,0-1.528.958l-1.3,2.656A0.025,0.025,0,0,1,7,6.3l-2.931.439a1.7,1.7,0,0,0-.934,2.912ZM4.309,8.4l0.012,0,2.931-.439a1.709,1.709,0,0,0,1.282-.939l1.3-2.657a0.043,0.043,0,0,1,.007-0.011,0.039,0.039,0,0,1,.031,0,0.039,0.039,0,0,1,.007.011L11.2,7.011a1.709,1.709,0,0,0,1.291.926L15.43,8.349l0.012,0a0.041,0.041,0,0,1,.01.029,0.04,0.04,0,0,1-.008.01l-2.113,2.073a1.7,1.7,0,0,0-.485,1.511l0.515,2.911a0.043,0.043,0,0,1,0,.013,0.039,0.039,0,0,1-.025.018l-0.012,0L10.7,13.549a1.712,1.712,0,0,0-1.591.008L6.488,14.944l-0.012,0a0.04,0.04,0,0,1-.025-0.018,0.043,0.043,0,0,1,0-.013L6.939,12a1.7,1.7,0,0,0-.5-1.506L4.308,8.443A0.041,0.041,0,0,1,4.3,8.433,0.041,0.041,0,0,1,4.309,8.4h0Z"/>
</svg>
