<?xml version="1.0" encoding="utf-8"?>
<!-- Generator: Adobe Illustrator 21.0.0, SVG Export Plug-In . SVG Version: 6.00 Build 0)  -->
<svg version="1.1" id="Layer_1" xmlns="http://www.w3.org/2000/svg" xmlns:xlink="http://www.w3.org/1999/xlink" x="0px" y="0px"
	 viewBox="0 0 512 512" style="enable-background:new 0 0 512 512;" xml:space="preserve">
<style type="text/css">
	.st0{fill:#FFFFFF;}
</style>
<g id="Businessman-2">
	<rect x="160" y="152" class="st0" width="16" height="16"/>
	<rect x="224" y="152" class="st0" width="16" height="16"/>
	<path class="st0" d="M240,192h-16c0,13.3-10.7,24-24,24s-24-10.7-24-24h-16c0,22.1,17.9,40,40,40S240,214.1,240,192z"/>
	<path class="st0" d="M480,449.4V376c-0.1-39.5-26.4-74-64.4-84.7c0.2-1.1,0.4-2.2,0.4-3.3v-8c0-4.7-2.1-9.2-5.7-12.2l13.2-32.9
		c1.6-4.1-0.3-8.8-4.4-10.4c-0.9-0.4-2-0.6-3-0.6h-80c-4.4,0-8,3.6-8,8c0,1,0.2,2,0.6,3l13.2,32.9c-3.6,3-5.7,7.5-5.7,12.2v8
		c0,1.1,0.1,2.2,0.4,3.3c-8.7,2.4-16.9,6.1-24.4,11c-3.7-2-7.5-3.7-11.5-5.2L240,274.5v-12.2c27.2-13.9,45.3-41,47.7-71.5
		c17,4.9,34.7-5,39.6-22c4.9-17-5-34.7-22-39.6c-4.7-1.3-9.6-1.6-14.4-0.7l10.8-10.8c1.5-1.5,2.3-3.5,2.3-5.7V72
		c0-30.9-25.1-56-56-56H72c-4.4,0-8,3.6-8,8c0,1.6,0.5,3.1,1.3,4.4l28.9,43.3L73.6,99.2c-2.7,3.5-1.9,8.5,1.6,11.2
		c0.2,0.2,0.4,0.3,0.7,0.5l28.7,17.2c-0.2,0-0.4,0-0.5,0c-17.7-0.3-32.2,13.9-32.5,31.5c-0.3,17.7,13.9,32.2,31.5,32.5
		c3.1,0,6.3-0.4,9.3-1.2c2.4,30.5,20.4,57.6,47.7,71.5v12.2l-60.5,22.7C59,312.5,32.1,351.2,32,394.6V488c0,4.4,3.6,8,8,8h432
		c13.3,0,24-10.7,24-24C496,461.8,489.6,452.8,480,449.4z M404.2,240l-9.6,24h-37.2l-9.6-24H404.2z M352,288v-8h48v8H352z
		 M298.1,313.5C281.4,330,272,352.5,272,376v73.4c-9.6,3.4-16,12.5-16,22.6c0,2.7,0.5,5.4,1.5,8h-34.5l7.7-11.6
		c1-1.6,1.5-3.4,1.3-5.3l-14.7-132.7l18.4,12.2c1.3,0.9,2.9,1.4,4.4,1.4c0.7,0,1.4-0.1,2.1-0.3c2.2-0.6,4.1-2.1,5.1-4.2l19.1-38.2
		l28.7,10.8C296,312.5,297.1,313.1,298.1,313.5z M193.2,317.8l4.6-13.8h4.5l4.6,13.8l-6.8,6.8L193.2,317.8z M251.2,295.7l-14.3,28.6
		l-14.2-9.5l-5.2-15.6l15.5-10.3L251.2,295.7z M312,160c0,8.8-7.2,16-16,16c-2.8,0-5.6-0.8-8-2.2v-27.6c2.4-1.4,5.2-2.2,8-2.2
		C304.8,144,312,151.2,312,160z M110.4,76.8c2-2.7,2.1-6.4,0.3-9.2L86.9,32H248c22.1,0,40,17.9,40,40v36.7L276.7,120h-8.9
		c-9.1,0-17.4-5.1-21.5-13.3l-7.1-14.3c-1.1-2.2-3.1-3.7-5.4-4.2c-0.6-0.1-1.2-0.2-1.8-0.2c-1.8,0-3.6,0.6-5,1.8l-18.1,14.5
		c-12.8,10.2-28.6,15.8-45,15.8h-41.7l-30.5-18.3L110.4,76.8z M88,160c0-8.8,7.2-16,16-16c2.8,0,5.6,0.8,8,2.2v27.6
		c-2.4,1.4-5.2,2.2-8,2.2C95.2,176,88,168.8,88,160z M128,184v-48h35.9c20,0,39.4-6.8,55-19.3l10.4-8.3l2.7,5.5
		c6.7,13.6,20.6,22.2,35.8,22.1h4.2v48c0,39.8-32.2,72-72,72S128,223.8,128,184z M200,272c8.1,0,16.2-1.2,24-3.4v7.1L205.6,288
		h-11.2L176,275.7v-7.1C183.8,270.8,191.9,272,200,272z M167,288.9l15.5,10.3l-5.2,15.6l-14.2,9.5l-14.3-28.6L167,288.9z M48,394.6
		c0.1-36.7,22.9-69.4,57.1-82.4l28.6-10.7l19.1,38.2c1,2.1,2.9,3.6,5.1,4.2c0.7,0.2,1.4,0.3,2.1,0.2c1.6,0,3.1-0.5,4.4-1.3
		l18.4-12.2L168,463.1c-0.2,1.9,0.3,3.8,1.3,5.3l7.7,11.6H112V360H96v120H48V394.6z M196.3,480l-12-18l13.2-118.5
		c1.6,0.7,3.5,0.7,5.1,0L215.7,462l-12,18H196.3z M472,480H280c-4.4,0-8-3.6-8-8s3.6-8,8-8s8-3.6,8-8v-80c0-39.7,32.3-72,72-72h32
		c39.7,0,72,32.3,72,72v80c0,4.4,3.6,8,8,8s8,3.6,8,8S476.4,480,472,480z"/>
	<path class="st0" d="M368,368h16c4.4,0,8,3.6,8,8h16c0-13.3-10.7-24-24-24v-8h-16v8c-13.3,0-24,10.7-24,24s10.7,24,24,24h16
		c4.4,0,8,3.6,8,8s-3.6,8-8,8h-16c-4.4,0-8-3.6-8-8h-16c0,13.3,10.7,24,24,24v8h16v-8c13.3,0,24-10.7,24-24s-10.7-24-24-24h-16
		c-4.4,0-8-3.6-8-8S363.6,368,368,368z"/>
	<rect x="424" y="384" class="st0" width="16" height="16"/>
	<rect x="312" y="384" class="st0" width="16" height="16"/>
</g>
</svg>
