<?xml version="1.0" encoding="utf-8"?>
<!-- Generator: Adobe Illustrator 21.0.0, SVG Export Plug-In . SVG Version: 6.00 Build 0)  -->
<svg version="1.1" id="Capa_1" xmlns="http://www.w3.org/2000/svg" xmlns:xlink="http://www.w3.org/1999/xlink" x="0px" y="0px"
	 viewBox="0 0 512 512" style="enable-background:new 0 0 512 512;" xml:space="preserve">
<style type="text/css">
	.st0{fill:#FFFFFF;}
</style>
<g>
	<path class="st0" d="M401,273c31.6-2,60.6-16.2,81.5-40c43.2-49.1,38.4-124.2-10.6-167.4c-21.3-18.8-48.6-29.3-77-29.6
		c-0.5,0-0.9,0-1.4,0c-27.6,0-54.3,9.6-75.5,27.1c-3.2,2.6-3.6,7.4-1,10.6c2.6,3.2,7.4,3.7,10.6,1C367,42.1,423.5,43,461.9,76.9
		c42.9,37.8,47,103.4,9.3,146.3c-18.3,20.8-43.6,33.2-71.2,34.9c-13.7,0.9-27.1-0.9-39.7-5.2c-7.1-2.4-13.9-5.5-20.3-9.4
		c-5.3-3.2-10.3-6.9-15-11c-9.9-8.7-17.7-18.8-23.5-29.9c-3.5-6.7-6.2-13.7-8.2-20.9c-7.2-26.7-3.7-55.9,11.7-81
		c2.2-3.5,1-8.2-2.5-10.3s-8.2-1.1-10.3,2.5c-15.8,25.8-20.6,55.5-15.5,83.4c-9.4-2.3-19-3.5-28.6-3.5c-32.9,0-65.7,13.6-89.1,40.2
		c-23.2,26.3-32.5,60.1-28.7,92.4l-46.8,14.4c-3.2-6.7-9.9-11.3-17.8-11.3h-46C8.8,308.4,0,317.2,0,328.1V441
		c0,10.9,8.8,19.7,19.7,19.7h46c8.6,0,15.9-5.6,18.6-13.3l60.3,10.5c0.4,0.1,0.9,0.1,1.3,0.1c3.6,0,6.8-2.6,7.4-6.2
		c0.7-4.1-2-8-6.1-8.7l-61.8-10.7v-97.6l47.6-14.7l11.7-3.6c0.9-0.3,1.8-0.6,2.7-0.8c40.2-12.2,59.2-14.3,85.9-14.3h24.3
		c3,0.5,5.7,1.5,8.1,2.6c7.3,3.6,11.6,9.9,12.8,16.4c0.4,1.9,0.5,3.8,0.3,5.6c-0.7,8.9-7.6,18.4-24.8,18.4h-18.9
		c-15-1-24.6,9.6-26.3,20.7c-1.6,10.7,4.1,23.9,20.8,27.9c0.2,0,0.3,0.1,0.5,0.1l8.6,1.4l49.8,8.3l1.9,0.3c0.2,0,0.4,0.1,0.7,0.1
		c3.6,0.3,7,0.7,10.3,1.1c10.3,1.2,20,2.4,31.7-0.4l107.7-25.2c0,0,0.1,0,0.1,0c12.6-3.1,19,2.7,20.8,9.1
		c1.9,6.9-1.1,15.8-12.1,19.1l-168.9,50.5c-18.8,5.6-34.3,3.1-40.1,1.8c-0.1,0-0.3-0.1-0.4-0.1L181.3,449c-4.1-0.7-8,2-8.7,6.1
		s2,8,6.1,8.7l58.5,10.1c3.7,0.8,10.6,2,19.4,2c8,0,17.7-1,28.2-4.1l168.9-50.5c19.5-5.8,26.1-23.7,22.3-37.4
		c-3.6-13.3-17.3-25.1-38.8-19.7l-107.6,25.1c-5.7,1.3-11,1.5-16.4,1.1c8.7-5.8,16.7-12.7,23.8-20.8c20.9-23.8,31.4-54.3,29.4-85.9
		c-0.3-4.7-0.9-9.4-1.7-14c9.3,2.3,18.8,3.5,28.6,3.5C395.8,273.3,398.4,273.2,401,273L401,273z M70.4,441c0,2.5-2.2,4.7-4.7,4.7
		h-46c-2.5,0-4.7-2.1-4.7-4.7V328.1c0-2.6,2.1-4.7,4.7-4.7h46c2.6,0,4.7,2.2,4.7,4.7V441z M325.8,359.8
		C315,372,301.7,381.4,287,387.4l-54.2-9.1c-6.5-1.6-10-5.7-9.2-10.9c0.7-4.3,4.2-8.5,10.7-8c0.2,0,0.4,0,0.6,0h19.2
		c25.6,0,38.4-16.2,39.7-32.2c1-12.7-4.8-26.6-17.8-34.7c-4.5-5.3-11.2-8.7-18.6-8.7h-18.6c-5.2,0-9.5-4.3-9.5-9.5s4.3-9.5,9.5-9.5
		h35.4c4.1,0,7.5-3.4,7.5-7.5s-3.4-7.5-7.5-7.5h-18.7v-12.7c0-4.1-3.4-7.5-7.5-7.5s-7.5,3.4-7.5,7.5v12.7h-1.7
		c-13.5,0-24.5,11-24.5,24.5c0,4.5,1.2,8.8,3.4,12.4c-20.8,0.9-40,4.2-72.8,14.1c-2.5-27.4,5.8-55.8,25.4-78h0
		c28.4-32.2,72.5-42.6,110.9-29.7c6.5,19,17.9,36.5,33.9,50.5c10,8.8,21.1,15.7,33,20.7c1.8,6.6,2.9,13.4,3.3,20.4
		C353.2,312.3,344.1,339,325.8,359.8z"/>
	<path class="st0" d="M402.7,181.1h-35.4c-4.1,0-7.5,3.4-7.5,7.5s3.4,7.5,7.5,7.5h18.7v12.7c0,4.1,3.4,7.5,7.5,7.5s7.5-3.4,7.5-7.5
		v-12.7h1.7c13.5,0,24.5-11,24.5-24.5c0-13.5-10.9-24.5-24.4-24.5h-18.5c-5.2,0-9.5-4.3-9.5-9.5s4.3-9.5,9.5-9.5h35.4
		c4.1,0,7.5-3.4,7.5-7.5s-3.4-7.5-7.5-7.5H401v-12.7c0-4.1-3.4-7.5-7.5-7.5s-7.5,3.4-7.5,7.5v12.7h-1.7c-13.5,0-24.5,11-24.5,24.5
		c0,13.5,11,24.5,24.5,24.5h18.5c5.1,0,9.4,4.3,9.4,9.5C412.2,176.9,407.9,181.1,402.7,181.1z"/>
</g>
</svg>
