<?xml version="1.0" encoding="utf-8"?>
<!-- Generator: Adobe Illustrator 21.0.0, SVG Export Plug-In . SVG Version: 6.00 Build 0)  -->
<svg version="1.1" id="Capa_1" xmlns="http://www.w3.org/2000/svg" xmlns:xlink="http://www.w3.org/1999/xlink" x="0px" y="0px"
	 viewBox="0 0 490.7 490.7" style="enable-background:new 0 0 490.7 490.7;" xml:space="preserve">
<style type="text/css">
	.st0{fill:#F39323;}
	.st1{fill:#6B6B82;}
</style>
<g>
	<g>
		<path class="st0" d="M245.3,85.3c-41.2,0-74.7,33.5-74.7,74.7s33.5,74.7,74.7,74.7S320,201.2,320,160S286.5,85.3,245.3,85.3z
			 M245.3,213.3c-29.4,0-53.3-23.9-53.3-53.3s23.9-53.3,53.3-53.3s53.3,23.9,53.3,53.3S274.7,213.3,245.3,213.3z"/>
	</g>
</g>
<g>
	<g>
		<path class="st1" d="M394.7,170.7c-29.4,0-53.3,23.9-53.3,53.3s23.9,53.3,53.3,53.3S448,253.4,448,224S424.1,170.7,394.7,170.7z
			 M394.7,256c-17.6,0-32-14.4-32-32s14.4-32,32-32s32,14.4,32,32S412.3,256,394.7,256z"/>
	</g>
</g>
<g>
	<g>
		<path class="st1" d="M97.5,170.7c-29.4,0-53.3,23.9-53.3,53.3s23.9,53.3,53.3,53.3s53.3-23.9,53.3-53.3S126.9,170.7,97.5,170.7z
			 M97.5,256c-17.6,0-32-14.4-32-32s14.4-32,32-32s32,14.4,32,32S115.2,256,97.5,256z"/>
	</g>
</g>
<g>
	<g>
		<path class="st1" d="M245.3,256c-76.5,0-138.7,62.2-138.7,138.7c0,5.9,4.8,10.7,10.7,10.7s10.7-4.8,10.7-10.7
			c0-64.7,52.6-117.3,117.3-117.3S362.7,330,362.7,394.7c0,5.9,4.8,10.7,10.7,10.7s10.7-4.8,10.7-10.7
			C384,318.2,321.8,256,245.3,256z"/>
	</g>
</g>
<g>
	<g>
		<path class="st1" d="M394.7,298.7c-17.6,0-34.8,4.8-49.7,13.9c-5,3.1-6.6,9.6-3.6,14.7c3.1,5,9.6,6.6,14.7,3.6
			c11.6-7.1,25-10.8,38.7-10.8c41.2,0,74.7,33.5,74.7,74.7c0,5.9,4.8,10.7,10.7,10.7s10.7-4.8,10.7-10.7
			C490.7,341.7,447.6,298.7,394.7,298.7z"/>
	</g>
</g>
<g>
	<g>
		<path class="st1" d="M145.7,312.5c-15-9-32.1-13.8-49.7-13.8c-52.9,0-96,43.1-96,96c0,5.9,4.8,10.7,10.7,10.7s10.7-4.8,10.7-10.7
			c0-41.2,33.5-74.7,74.7-74.7c13.7,0,27,3.7,38.6,10.8c5,3.1,11.6,1.5,14.7-3.6S150.7,315.6,145.7,312.5z"/>
	</g>
</g>
</svg>
