<?xml version="1.0" encoding="utf-8"?>
<!-- Generator: Adobe Illustrator 21.0.0, SVG Export Plug-In . SVG Version: 6.00 Build 0)  -->
<svg version="1.1" id="Layer_1" xmlns="http://www.w3.org/2000/svg" xmlns:xlink="http://www.w3.org/1999/xlink" x="0px" y="0px"
	 viewBox="0 0 512 512" style="enable-background:new 0 0 512 512;" xml:space="preserve">
<style type="text/css">
	.st0{fill:#FFFFFF;}
</style>
<path class="st0" d="M160.2,307.9c10.7-14.4,39-52.7,7.3-80.8c-16.5-14.6-44.5-13.5-69.9,2.8c-13.3,8.6-24.1,20.5-30.5,33.5
	c-7.3,14.5-8.7,31.3-3.9,46.8c18.7,60.5,16.7,95.7,15.6,105.1c-0.6,4.7-0.3,9.5,0.7,14.1c4.7,19.8,22.4,33.8,42.8,33.8
	c0.5,0,1,0,1.5,0c19.4-0.7,35.7-14.7,39.5-33.7c2.1-10.7-0.3-21.7-6.7-30.6c-6.8-9.7-17.3-30.1-10.5-58.4
	C149.3,327.1,153.9,316.5,160.2,307.9L160.2,307.9z M146.8,405.8c4.4,6.1,6.1,13.8,4.7,21.2c-2.7,13.6-14.3,23.5-28.1,24.1
	c-0.4,0-0.7,0-1.1,0c-14.8,0-27.7-10.1-31.1-24.6c-0.7-3.3-0.9-6.6-0.5-9.9c4.5-39.3-11.2-94.1-16.1-110
	c-9.1-29.3,10.2-54.2,29.5-66.7c12.4-8,24-11.2,33.8-11.2c9.1,0,16.6,2.8,21.6,7.3c20.7,18.4,7.1,43-8.9,64.7
	c-7.3,9.9-12.6,21.9-16.1,36.9C126.3,371.8,140.4,396.7,146.8,405.8L146.8,405.8z"/>
<path class="st0" d="M414.4,229.9c-25.3-16.3-53.4-17.5-69.9-2.8c-31.7,28.1-3.4,66.4,7.3,80.8c6.3,8.5,10.9,19.2,14.1,32.5
	c6.8,28.3-3.7,48.7-10.5,58.4c-6.3,8.8-8.8,19.9-6.7,30.6c3.8,19,20.1,32.9,39.5,33.7c0.5,0,1,0,1.5,0c20.4,0,38.1-13.9,42.8-33.8
	c1.1-4.6,1.3-9.4,0.7-14.1c-1.1-9.4-3.1-44.6,15.6-105.1c4.8-15.5,3.4-32.3-3.9-46.8C438.5,250.4,427.7,238.5,414.4,229.9
	L414.4,229.9z M437.4,306.7c-19.4,62.7-17.2,100-16.1,110c0.4,3.3,0.3,6.7-0.5,9.9c-3.4,14.4-16.3,24.6-31.1,24.6
	c-0.4,0-0.7,0-1.1,0c-13.8-0.6-25.5-10.5-28.1-24.1c-1.4-7.4,0.3-15.1,4.7-21.2c6.5-9.1,20.6-34,12.4-68.1c-3.6-15-8.9-27-16.1-36.9
	c-16-21.7-29.6-46.4-8.9-64.7c10.3-9.2,31.4-11.5,55.4,3.9C427.2,252.4,446.4,277.3,437.4,306.7L437.4,306.7z"/>
<g>
	<path class="st0" d="M303.9,352h-95.8c-3.3,0-6,2.7-6,6s2.7,6,6,6h95.8c3.3,0,6-2.7,6-6S307.2,352,303.9,352z"/>
	<path class="st0" d="M274,391.9H238c-3.3,0-6,2.7-6,6s2.7,6,6,6H274c3.3,0,6-2.7,6-6S277.3,391.9,274,391.9z"/>
	<path class="st0" d="M238,324H274c3.3,0,6-2.7,6-6s-2.7-6-6-6H238c-3.3,0-6,2.7-6,6S234.7,324,238,324z"/>
</g>
<path class="st0" d="M256,210.6c50.7-0.1,91.7-41.2,91.6-91.9S306.4,27,255.7,27.1c-50.6,0.1-91.6,41.1-91.6,91.8
	C164.2,169.5,205.3,210.6,256,210.6z M316.5,66.9c11.2,12.9,17.9,29,19.1,46l-5.9,0c-1.2-15.4-7.3-30.1-17.3-41.9L316.5,66.9z
	 M308,58.4l-4.1,4.2c-11.8-10-26.4-16.1-41.8-17.4l-0.1-5.9C279,40.6,295.2,47.3,308,58.4L308,58.4z M318,118.8
	c0.1,34.3-27.7,62.1-61.9,62.2c-34.3,0.1-62.1-27.7-62.2-61.9s27.7-62.1,61.9-62.2c0,0,0.1,0,0.1,0C290.2,56.9,318,84.6,318,118.8
	L318,118.8z M250.1,39.3l0.1,5.8c-15.4,1.2-30.1,7.2-41.9,17.2l-4.2-4.1C217,47.2,233.1,40.6,250.1,39.3L250.1,39.3z M195.5,66.8
	l4.2,4.1c-10.1,11.8-16.3,26.5-17.5,42h-5.9C177.6,95.8,184.3,79.7,195.5,66.8z M182.2,124.8c3.4,40.8,39.1,71.1,79.9,67.7
	c36-3,64.6-31.6,67.7-67.6l5.9,0c-3.4,44-41.9,76.9-85.9,73.5c-39.3-3.1-70.5-34.3-73.5-73.5H182.2z"/>
<path class="st0" d="M257,135.5c8.2,0,14.9-6.6,14.9-14.8c0-2.9-0.8-5.7-2.4-8.1l13.9-19.9c1.9-2.7,1.3-6.4-1.4-8.4
	c-2.7-1.9-6.4-1.3-8.4,1.4c0,0-0.1,0.1-0.1,0.1l-14,20.1c-8.1-1.4-15.8,4-17.2,12.1s4,15.8,12.1,17.2
	C255.3,135.5,256.1,135.5,257,135.5L257,135.5z M257,117.7c1.6,0,2.9,1.3,2.9,2.9c0,1.6-1.3,2.9-2.9,2.9c-1.6,0-2.9-1.3-2.9-2.9
	C254.1,119,255.4,117.7,257,117.7L257,117.7z"/>
<path class="st0" d="M52.9,106.2c0.1,0,0.3,0,0.5,0c3.3-0.2,5.8-3.1,5.5-6.4l-0.1-2c-0.2-3.3-3-5.9-6.3-5.7c-3.3,0.2-5.9,3-5.7,6.3
	c0,0.1,0,0.2,0,0.3l0.1,2C47.2,103.7,49.8,106.1,52.9,106.2z"/>
<path class="st0" d="M61.7,217.8c3.3-0.2,5.8-3.1,5.5-6.4l-6.8-91.7c-0.3-3.3-3.1-5.8-6.4-5.5c-3.3,0.3-5.8,3.1-5.5,6.4l6.8,91.7
	c0.2,3.1,2.8,5.6,6,5.6C61.4,217.8,61.5,217.8,61.7,217.8z"/>
<path class="st0" d="M463.7,60.8H354.2c-32.4-54.2-102.5-72-156.8-39.6c-16.3,9.7-29.9,23.3-39.6,39.6H48.3c-17.7,0-32,14.4-32,32.1
	c0,0.6,0,1.3,0.1,1.9l22.9,382.1c1,16.9,15,30.1,31.9,30.1h369.6c16.9,0,30.9-13.2,31.9-30.1l22.9-382.1c1.1-17.7-12.4-32.8-30-33.9
	C465,60.8,464.3,60.8,463.7,60.8z M483.7,94l-22.9,382.1c-0.6,10.6-9.4,18.8-20,18.9H71.2c-10.6,0-19.3-8.3-20-18.9L28.3,94
	c-0.3-5.4,1.6-10.8,5.3-14.8c4-4.2,9.5-6.5,15.2-6.5h102.7c-4.8,10.6-7.9,21.9-9.2,33.5c-0.4,3.3,2,6.3,5.3,6.7c0.2,0,0.5,0,0.7,0
	c3,0,5.6-2.2,5.9-5.2c6-51,49.4-90.7,101.8-90.7c56.5,0,102.5,46.1,102.5,102.8s-46,102.8-102.5,102.8c-47.7,0-87.8-32.8-99.3-77
	c-0.8-3.2-4-5.2-7.2-4.4s-5.2,4-4.4,7.2c0,0,0,0.1,0,0.1c12.7,49.5,57.6,86.1,110.9,86.1c63.2,0,114.5-51.5,114.5-114.8
	c0-16.2-3.4-32.2-10-47h102.7c5.8-0.1,11.3,2.3,15.2,6.5C482.1,83.2,484,88.6,483.7,94L483.7,94z"/>
</svg>
